<svg xmlns="http://www.w3.org/2000/svg" width="4666.667" height="3298.667" version="1.0" viewBox="0 0 3500 2474"><path d="M0 1237v1237h3500V0H0v1237zm1417.8-877c4.4 10.7 52.8 130.4 107.5 266 54.8 135.6 130.6 323.2 168.5 417 82.1 203.3 221.7 548.7 238.2 589.6l11.8 29.1-40 98.9c-21.9 54.4-64.5 159.6-94.4 233.9-30 74.2-55.2 135.6-55.9 136.4-1.2 1.2-1.5 1.1-2.3-1-.6-1.3-22.4-55.3-48.5-119.9-26.1-64.6-66.8-165.4-90.5-224-23.7-58.6-66.5-164.6-95.2-235.5-28.7-71-64.1-158.8-78.8-195.2-14.7-36.4-27-65.8-27.4-65.5-.3.4-16.8 40.7-36.6 89.7-19.7 48.9-49.1 121.6-65.2 161.5-16.1 39.9-29.6 73.3-30.1 74.2-.9 1.7-11.2 1.8-193.4 1.8-105.8 0-192.6-.3-192.8-.8-.3-.4 5.7-16 13.3-34.7 7.5-18.7 43.4-107.6 79.8-197.5 36.3-89.9 78.9-195.5 94.7-234.5 86.4-213.9 164-405.9 240.2-594.5 47-116.3 85.9-212.6 86.4-213.9.6-1.5 1.3-2.1 1.9-1.5.5.5 4.5 9.7 8.8 20.4zm684.3 11.1c4.7 11.8 34.5 85.5 66.2 163.9 56.8 140.6 91.8 227.2 161.3 399.5 19.6 48.4 72.9 180.2 118.4 293 45.6 112.7 99.5 246.2 119.8 296.5 20.4 50.3 36.8 91.8 36.5 92.2-.2.5-82.7.8-183.2.8-145.1 0-183.1-.3-183.9-1.3-.9-1-32-77.8-166.9-411.7-17.9-44.3-54.2-134.3-80.8-200-88.4-218.6-78.5-193.2-78.5-201.8v-7.5l48.1-119.1c26.5-65.5 66.5-164.6 88.9-220.1 22.5-55.6 41.3-102.3 41.9-103.8.6-1.6 1.7-2.7 2.3-2.5.7.3 5.1 10.1 9.9 21.9z"/></svg>