<svg xmlns="http://www.w3.org/2000/svg" width="4666.667" height="3298.667" version="1.0" viewBox="0 0 3500 2474"><path d="M1362.1 455.8c-56.5 139.7-192.2 475.7-256.1 633.7-49.7 123.2-179.6 444.8-199.9 494.9-6.7 16.4-12.1 30.1-12.1 30.3 0 .1 86.4.3 191.9.3 152.6 0 192-.3 192.4-1.2 17.3-42.7 61-150.9 91.2-225.8 21.8-54.2 40.3-99.1 41.1-99.9 1.1-1.2 1.5-1.1 2.3 1 2.6 6.9 19.9 49.8 44.6 110.9 15.2 37.7 58.9 145.7 97 240 114.8 284.1 195.3 483.3 196.9 487l1.4 3.5 2-4.6c1.9-4.3 62.1-153.2 150.2-371.4 21-52.2 36.9-92.9 36.7-94-.4-1.7-49.4-123.2-199.5-494.5-21.5-53.1-57.5-142.2-80-198-22.6-55.8-57.7-142.9-78.2-193.5-20.4-50.6-67.8-167.8-105.2-260.5-37.4-92.7-68.6-169.5-69.2-170.7-1-2-6.7 11.4-47.5 112.5zm697.2-25c-17.7 43.8-57.9 143.3-89.3 220.9L1913 793v9.3c0 9.3.1 9.6 6.9 26.3 3.8 9.3 31.4 77.6 61.4 151.9 30 74.2 73.7 182.5 97.2 240.5 23.4 58 68.8 170.4 100.8 249.7l58.2 144.2 182.9.1c158.7 0 182.7-.2 182.3-1.4-.9-2.4-85.6-211.9-189.5-469.1-82.3-203.8-180.3-446.2-210.5-521C2112.9 401 2092.6 351 2092.1 351c-.3 0-15.1 35.9-32.8 79.8z"/></svg>